<mxfile host="app.diagrams.net" modified="2024-02-17T18:22:49.358Z" agent="Mozilla/5.0 (Macintosh; Intel Mac OS X 10_15_7) AppleWebKit/537.36 (KHTML, like Gecko) Chrome/121.0.0.0 Safari/537.36" etag="5Yg7qLtnITrd64PhYYkb" version="23.1.5" type="github">
  <diagram name="Page-1" id="QJoDa5Xf5KZHRKWnFKj4">
    <mxGraphModel dx="570" dy="397" grid="1" gridSize="10" guides="1" tooltips="1" connect="1" arrows="1" fold="1" page="1" pageScale="1" pageWidth="1169" pageHeight="827" math="0" shadow="0">
      <root>
        <mxCell id="0" />
        <mxCell id="1" parent="0" />
        <mxCell id="z7CCXZcRLEo5i3R6FDuk-22" value="Nominative" style="rounded=0;whiteSpace=wrap;html=1;" parent="1" vertex="1">
          <mxGeometry x="40" y="40" width="120" height="20" as="geometry" />
        </mxCell>
        <mxCell id="z7CCXZcRLEo5i3R6FDuk-23" value="M" style="rounded=0;whiteSpace=wrap;html=1;fillColor=#f5f5f5;fontColor=#333333;strokeColor=#666666;fontSize=9;" parent="1" vertex="1">
          <mxGeometry x="40" y="60" width="40" height="10" as="geometry" />
        </mxCell>
        <mxCell id="z7CCXZcRLEo5i3R6FDuk-24" value="N" style="rounded=0;whiteSpace=wrap;html=1;fillColor=#f5f5f5;fontColor=#333333;strokeColor=#666666;fontSize=9;" parent="1" vertex="1">
          <mxGeometry x="80" y="60" width="40" height="10" as="geometry" />
        </mxCell>
        <mxCell id="z7CCXZcRLEo5i3R6FDuk-25" value="F" style="rounded=0;whiteSpace=wrap;html=1;fillColor=#f5f5f5;fontColor=#333333;strokeColor=#666666;fontSize=9;" parent="1" vertex="1">
          <mxGeometry x="120" y="60" width="40" height="10" as="geometry" />
        </mxCell>
        <mxCell id="z7CCXZcRLEo5i3R6FDuk-28" value="-a" style="rounded=0;whiteSpace=wrap;html=1;" parent="1" vertex="1">
          <mxGeometry x="120" y="70" width="40" height="30" as="geometry" />
        </mxCell>
        <mxCell id="z7CCXZcRLEo5i3R6FDuk-27" value="-o -e" style="rounded=0;whiteSpace=wrap;html=1;fillColor=#fff2cc;strokeColor=#d6b656;" parent="1" vertex="1">
          <mxGeometry x="80" y="70" width="40" height="30" as="geometry" />
        </mxCell>
        <mxCell id="z7CCXZcRLEo5i3R6FDuk-29" value="-i" style="rounded=0;whiteSpace=wrap;html=1;" parent="1" vertex="1">
          <mxGeometry x="40" y="100" width="40" height="30" as="geometry" />
        </mxCell>
        <mxCell id="z7CCXZcRLEo5i3R6FDuk-26" value="" style="rounded=0;whiteSpace=wrap;html=1;fillColor=#fff2cc;strokeColor=#d6b656;" parent="1" vertex="1">
          <mxGeometry x="40" y="70" width="40" height="30" as="geometry" />
        </mxCell>
        <mxCell id="z7CCXZcRLEo5i3R6FDuk-30" value="-a" style="rounded=0;whiteSpace=wrap;html=1;fillColor=#fff2cc;strokeColor=#d6b656;" parent="1" vertex="1">
          <mxGeometry x="80" y="100" width="40" height="30" as="geometry" />
        </mxCell>
        <mxCell id="z7CCXZcRLEo5i3R6FDuk-31" value="-e" style="rounded=0;whiteSpace=wrap;html=1;fillColor=#fff2cc;strokeColor=#d6b656;" parent="1" vertex="1">
          <mxGeometry x="120" y="100" width="40" height="30" as="geometry" />
        </mxCell>
        <mxCell id="z7CCXZcRLEo5i3R6FDuk-43" value="Akuzative" style="rounded=0;whiteSpace=wrap;html=1;" parent="1" vertex="1">
          <mxGeometry x="40" y="150" width="120" height="20" as="geometry" />
        </mxCell>
        <mxCell id="z7CCXZcRLEo5i3R6FDuk-44" value="M" style="rounded=0;whiteSpace=wrap;html=1;fontSize=8;fillColor=#f5f5f5;fontColor=#333333;strokeColor=#666666;" parent="1" vertex="1">
          <mxGeometry x="40" y="170" width="40" height="10" as="geometry" />
        </mxCell>
        <mxCell id="z7CCXZcRLEo5i3R6FDuk-45" value="N" style="rounded=0;whiteSpace=wrap;html=1;fontSize=8;fillColor=#f5f5f5;fontColor=#333333;strokeColor=#666666;" parent="1" vertex="1">
          <mxGeometry x="80" y="170" width="40" height="10" as="geometry" />
        </mxCell>
        <mxCell id="z7CCXZcRLEo5i3R6FDuk-46" value="F" style="rounded=0;whiteSpace=wrap;html=1;fontSize=8;fillColor=#f5f5f5;fontColor=#333333;strokeColor=#666666;" parent="1" vertex="1">
          <mxGeometry x="120" y="170" width="40" height="10" as="geometry" />
        </mxCell>
        <mxCell id="BAi89jd5EGfL0doamKMS-6" style="edgeStyle=orthogonalEdgeStyle;rounded=0;orthogonalLoop=1;jettySize=auto;html=1;exitX=0;exitY=0.25;exitDx=0;exitDy=0;fillColor=#fff2cc;strokeColor=#d6b656;entryX=0;entryY=0.5;entryDx=0;entryDy=0;" edge="1" parent="1" source="z7CCXZcRLEo5i3R6FDuk-47" target="z7CCXZcRLEo5i3R6FDuk-26">
          <mxGeometry relative="1" as="geometry">
            <mxPoint x="10" y="70" as="targetPoint" />
            <Array as="points">
              <mxPoint x="40" y="190" />
              <mxPoint x="20" y="190" />
              <mxPoint x="20" y="85" />
            </Array>
          </mxGeometry>
        </mxCell>
        <mxCell id="z7CCXZcRLEo5i3R6FDuk-49" value="-u" style="rounded=0;whiteSpace=wrap;html=1;" parent="1" vertex="1">
          <mxGeometry x="120" y="180" width="40" height="30" as="geometry" />
        </mxCell>
        <mxCell id="z7CCXZcRLEo5i3R6FDuk-50" value="-e" style="rounded=0;whiteSpace=wrap;html=1;" parent="1" vertex="1">
          <mxGeometry x="40" y="210" width="40" height="30" as="geometry" />
        </mxCell>
        <mxCell id="z7CCXZcRLEo5i3R6FDuk-48" value="-o -e" style="rounded=0;whiteSpace=wrap;html=1;fillColor=#fff2cc;strokeColor=#d6b656;" parent="1" vertex="1">
          <mxGeometry x="80" y="180" width="40" height="30" as="geometry" />
        </mxCell>
        <mxCell id="z7CCXZcRLEo5i3R6FDuk-51" value="-a" style="rounded=0;whiteSpace=wrap;html=1;fillColor=#fff2cc;strokeColor=#d6b656;" parent="1" vertex="1">
          <mxGeometry x="80" y="210" width="40" height="30" as="geometry" />
        </mxCell>
        <mxCell id="z7CCXZcRLEo5i3R6FDuk-52" value="-e" style="rounded=0;whiteSpace=wrap;html=1;fillColor=#fff2cc;strokeColor=#d6b656;" parent="1" vertex="1">
          <mxGeometry x="120" y="210" width="40" height="30" as="geometry" />
        </mxCell>
        <mxCell id="z7CCXZcRLEo5i3R6FDuk-54" value="Genetive" style="rounded=0;whiteSpace=wrap;html=1;" parent="1" vertex="1">
          <mxGeometry x="40" y="260" width="120" height="20" as="geometry" />
        </mxCell>
        <mxCell id="z7CCXZcRLEo5i3R6FDuk-55" value="M" style="rounded=0;whiteSpace=wrap;html=1;fontSize=8;fillColor=#f5f5f5;fontColor=#333333;strokeColor=#666666;" parent="1" vertex="1">
          <mxGeometry x="40" y="280" width="40" height="10" as="geometry" />
        </mxCell>
        <mxCell id="z7CCXZcRLEo5i3R6FDuk-56" value="N" style="rounded=0;whiteSpace=wrap;html=1;fontSize=8;fillColor=#f5f5f5;fontColor=#333333;strokeColor=#666666;" parent="1" vertex="1">
          <mxGeometry x="80" y="280" width="40" height="10" as="geometry" />
        </mxCell>
        <mxCell id="z7CCXZcRLEo5i3R6FDuk-57" value="F" style="rounded=0;whiteSpace=wrap;html=1;fontSize=8;fillColor=#f5f5f5;fontColor=#333333;strokeColor=#666666;" parent="1" vertex="1">
          <mxGeometry x="120" y="280" width="40" height="10" as="geometry" />
        </mxCell>
        <mxCell id="z7CCXZcRLEo5i3R6FDuk-60" value="-e" style="rounded=0;whiteSpace=wrap;html=1;" parent="1" vertex="1">
          <mxGeometry x="120" y="290" width="40" height="30" as="geometry" />
        </mxCell>
        <mxCell id="BAi89jd5EGfL0doamKMS-3" value="-og -eg&lt;br&gt;-a" style="rounded=0;whiteSpace=wrap;html=1;fillColor=#ffe6cc;strokeColor=#d79b00;" vertex="1" parent="1">
          <mxGeometry x="40" y="290" width="80" height="30" as="geometry" />
        </mxCell>
        <mxCell id="z7CCXZcRLEo5i3R6FDuk-47" value="non living" style="rounded=0;whiteSpace=wrap;html=1;fillColor=#fff2cc;strokeColor=#d6b656;fontSize=8;fontColor=#d6b656;" parent="1" vertex="1">
          <mxGeometry x="40" y="180" width="40" height="15" as="geometry" />
        </mxCell>
        <mxCell id="BAi89jd5EGfL0doamKMS-10" style="edgeStyle=orthogonalEdgeStyle;rounded=0;orthogonalLoop=1;jettySize=auto;html=1;exitX=0;exitY=0.5;exitDx=0;exitDy=0;entryX=0;entryY=0.5;entryDx=0;entryDy=0;fillColor=#ffe6cc;strokeColor=#d79b00;" edge="1" parent="1" source="BAi89jd5EGfL0doamKMS-9" target="BAi89jd5EGfL0doamKMS-3">
          <mxGeometry relative="1" as="geometry" />
        </mxCell>
        <mxCell id="BAi89jd5EGfL0doamKMS-9" value="living" style="rounded=0;whiteSpace=wrap;html=1;fillColor=#ffe6cc;strokeColor=#d79b00;fontSize=8;fontColor=#d79c00;" vertex="1" parent="1">
          <mxGeometry x="40" y="196" width="40" height="14" as="geometry" />
        </mxCell>
        <mxCell id="BAi89jd5EGfL0doamKMS-11" value="-ih&lt;br&gt;-a" style="rounded=0;whiteSpace=wrap;html=1;" vertex="1" parent="1">
          <mxGeometry x="40" y="320" width="120" height="30" as="geometry" />
        </mxCell>
        <mxCell id="BAi89jd5EGfL0doamKMS-12" value="Dativ" style="rounded=0;whiteSpace=wrap;html=1;fillColor=#dae8fc;strokeColor=#6c8ebf;" vertex="1" parent="1">
          <mxGeometry x="40" y="370" width="120" height="20" as="geometry" />
        </mxCell>
        <mxCell id="BAi89jd5EGfL0doamKMS-13" value="M" style="rounded=0;whiteSpace=wrap;html=1;fontSize=8;fillColor=#f5f5f5;fontColor=#333333;strokeColor=#666666;" vertex="1" parent="1">
          <mxGeometry x="40" y="390" width="40" height="10" as="geometry" />
        </mxCell>
        <mxCell id="BAi89jd5EGfL0doamKMS-14" value="N" style="rounded=0;whiteSpace=wrap;html=1;fontSize=8;fillColor=#f5f5f5;fontColor=#333333;strokeColor=#666666;" vertex="1" parent="1">
          <mxGeometry x="80" y="390" width="40" height="10" as="geometry" />
        </mxCell>
        <mxCell id="BAi89jd5EGfL0doamKMS-15" value="F" style="rounded=0;whiteSpace=wrap;html=1;fontSize=8;fillColor=#f5f5f5;fontColor=#333333;strokeColor=#666666;" vertex="1" parent="1">
          <mxGeometry x="120" y="390" width="40" height="10" as="geometry" />
        </mxCell>
        <mxCell id="BAi89jd5EGfL0doamKMS-16" value="-oj&lt;br&gt;-i" style="rounded=0;whiteSpace=wrap;html=1;fillColor=#dae8fc;strokeColor=#6c8ebf;" vertex="1" parent="1">
          <mxGeometry x="120" y="400" width="40" height="30" as="geometry" />
        </mxCell>
        <mxCell id="BAi89jd5EGfL0doamKMS-17" value="-om -em&lt;br&gt;-u" style="rounded=0;whiteSpace=wrap;html=1;fillColor=#dae8fc;strokeColor=#6c8ebf;" vertex="1" parent="1">
          <mxGeometry x="40" y="400" width="80" height="30" as="geometry" />
        </mxCell>
        <mxCell id="BAi89jd5EGfL0doamKMS-18" value="-im&lt;br&gt;-ima" style="rounded=0;whiteSpace=wrap;html=1;fillColor=#d5e8d4;strokeColor=#82b366;" vertex="1" parent="1">
          <mxGeometry x="40" y="430" width="80" height="30" as="geometry" />
        </mxCell>
        <mxCell id="BAi89jd5EGfL0doamKMS-19" value="-im&lt;br&gt;-ama" style="rounded=0;whiteSpace=wrap;html=1;fillColor=#d5e8d4;strokeColor=#82b366;" vertex="1" parent="1">
          <mxGeometry x="120" y="430" width="40" height="30" as="geometry" />
        </mxCell>
        <mxCell id="BAi89jd5EGfL0doamKMS-20" value="Locativ" style="rounded=0;whiteSpace=wrap;html=1;fillColor=#dae8fc;strokeColor=#6c8ebf;" vertex="1" parent="1">
          <mxGeometry x="40" y="480" width="120" height="20" as="geometry" />
        </mxCell>
        <mxCell id="BAi89jd5EGfL0doamKMS-21" value="M" style="rounded=0;whiteSpace=wrap;html=1;fontSize=8;fillColor=#f5f5f5;fontColor=#333333;strokeColor=#666666;" vertex="1" parent="1">
          <mxGeometry x="40" y="500" width="40" height="10" as="geometry" />
        </mxCell>
        <mxCell id="BAi89jd5EGfL0doamKMS-22" value="N" style="rounded=0;whiteSpace=wrap;html=1;fontSize=8;fillColor=#f5f5f5;fontColor=#333333;strokeColor=#666666;" vertex="1" parent="1">
          <mxGeometry x="80" y="500" width="40" height="10" as="geometry" />
        </mxCell>
        <mxCell id="BAi89jd5EGfL0doamKMS-23" value="F" style="rounded=0;whiteSpace=wrap;html=1;fontSize=8;fillColor=#f5f5f5;fontColor=#333333;strokeColor=#666666;" vertex="1" parent="1">
          <mxGeometry x="120" y="500" width="40" height="10" as="geometry" />
        </mxCell>
        <mxCell id="BAi89jd5EGfL0doamKMS-24" value="-oj&lt;br&gt;-i" style="rounded=0;whiteSpace=wrap;html=1;fillColor=#dae8fc;strokeColor=#6c8ebf;" vertex="1" parent="1">
          <mxGeometry x="120" y="510" width="40" height="30" as="geometry" />
        </mxCell>
        <mxCell id="BAi89jd5EGfL0doamKMS-25" value="-om -em&lt;br&gt;-u" style="rounded=0;whiteSpace=wrap;html=1;fillColor=#dae8fc;strokeColor=#6c8ebf;" vertex="1" parent="1">
          <mxGeometry x="40" y="510" width="80" height="30" as="geometry" />
        </mxCell>
        <mxCell id="BAi89jd5EGfL0doamKMS-26" value="-im&lt;br&gt;-ima" style="rounded=0;whiteSpace=wrap;html=1;fillColor=#d5e8d4;strokeColor=#82b366;" vertex="1" parent="1">
          <mxGeometry x="40" y="540" width="80" height="30" as="geometry" />
        </mxCell>
        <mxCell id="BAi89jd5EGfL0doamKMS-27" value="-im&lt;br&gt;-ama" style="rounded=0;whiteSpace=wrap;html=1;fillColor=#d5e8d4;strokeColor=#82b366;" vertex="1" parent="1">
          <mxGeometry x="120" y="540" width="40" height="30" as="geometry" />
        </mxCell>
        <mxCell id="BAi89jd5EGfL0doamKMS-37" value="Instrumental" style="rounded=0;whiteSpace=wrap;html=1;" vertex="1" parent="1">
          <mxGeometry x="40" y="590" width="120" height="20" as="geometry" />
        </mxCell>
        <mxCell id="BAi89jd5EGfL0doamKMS-38" value="M" style="rounded=0;whiteSpace=wrap;html=1;fontSize=8;fillColor=#f5f5f5;fontColor=#333333;strokeColor=#666666;" vertex="1" parent="1">
          <mxGeometry x="40" y="610" width="40" height="10" as="geometry" />
        </mxCell>
        <mxCell id="BAi89jd5EGfL0doamKMS-39" value="N" style="rounded=0;whiteSpace=wrap;html=1;fontSize=8;fillColor=#f5f5f5;fontColor=#333333;strokeColor=#666666;" vertex="1" parent="1">
          <mxGeometry x="80" y="610" width="40" height="10" as="geometry" />
        </mxCell>
        <mxCell id="BAi89jd5EGfL0doamKMS-40" value="F" style="rounded=0;whiteSpace=wrap;html=1;fontSize=8;fillColor=#f5f5f5;fontColor=#333333;strokeColor=#666666;" vertex="1" parent="1">
          <mxGeometry x="120" y="610" width="40" height="10" as="geometry" />
        </mxCell>
        <mxCell id="BAi89jd5EGfL0doamKMS-41" value="-om" style="rounded=0;whiteSpace=wrap;html=1;" vertex="1" parent="1">
          <mxGeometry x="120" y="620" width="40" height="30" as="geometry" />
        </mxCell>
        <mxCell id="BAi89jd5EGfL0doamKMS-42" value="-im&lt;br&gt;-em" style="rounded=0;whiteSpace=wrap;html=1;" vertex="1" parent="1">
          <mxGeometry x="40" y="620" width="80" height="30" as="geometry" />
        </mxCell>
        <mxCell id="BAi89jd5EGfL0doamKMS-43" value="-im&lt;br&gt;-ima" style="rounded=0;whiteSpace=wrap;html=1;fillColor=#d5e8d4;strokeColor=#82b366;" vertex="1" parent="1">
          <mxGeometry x="40" y="650" width="80" height="30" as="geometry" />
        </mxCell>
        <mxCell id="BAi89jd5EGfL0doamKMS-44" value="-im&lt;br&gt;-ama" style="rounded=0;whiteSpace=wrap;html=1;fillColor=#d5e8d4;strokeColor=#82b366;" vertex="1" parent="1">
          <mxGeometry x="120" y="650" width="40" height="30" as="geometry" />
        </mxCell>
        <mxCell id="BAi89jd5EGfL0doamKMS-46" value="Vocative" style="rounded=0;whiteSpace=wrap;html=1;" vertex="1" parent="1">
          <mxGeometry x="40" y="700" width="120" height="20" as="geometry" />
        </mxCell>
        <mxCell id="BAi89jd5EGfL0doamKMS-47" value="M" style="rounded=0;whiteSpace=wrap;html=1;fontSize=8;fillColor=#f5f5f5;fontColor=#333333;strokeColor=#666666;" vertex="1" parent="1">
          <mxGeometry x="40" y="720" width="40" height="10" as="geometry" />
        </mxCell>
        <mxCell id="BAi89jd5EGfL0doamKMS-48" value="N" style="rounded=0;whiteSpace=wrap;html=1;fontSize=8;fillColor=#f5f5f5;fontColor=#333333;strokeColor=#666666;" vertex="1" parent="1">
          <mxGeometry x="80" y="720" width="40" height="10" as="geometry" />
        </mxCell>
        <mxCell id="BAi89jd5EGfL0doamKMS-49" value="F" style="rounded=0;whiteSpace=wrap;html=1;fontSize=8;fillColor=#f5f5f5;fontColor=#333333;strokeColor=#666666;" vertex="1" parent="1">
          <mxGeometry x="120" y="720" width="40" height="10" as="geometry" />
        </mxCell>
        <mxCell id="BAi89jd5EGfL0doamKMS-50" value="-a&lt;br&gt;-o" style="rounded=0;whiteSpace=wrap;html=1;" vertex="1" parent="1">
          <mxGeometry x="120" y="730" width="40" height="30" as="geometry" />
        </mxCell>
        <mxCell id="BAi89jd5EGfL0doamKMS-51" value="-i&lt;br&gt;-e -u" style="rounded=0;whiteSpace=wrap;html=1;" vertex="1" parent="1">
          <mxGeometry x="40" y="730" width="40" height="30" as="geometry" />
        </mxCell>
        <mxCell id="BAi89jd5EGfL0doamKMS-56" value="-o -e" style="rounded=0;whiteSpace=wrap;html=1;" vertex="1" parent="1">
          <mxGeometry x="80" y="730" width="40" height="30" as="geometry" />
        </mxCell>
        <mxCell id="BAi89jd5EGfL0doamKMS-52" value="-im&lt;br&gt;-ima" style="rounded=0;whiteSpace=wrap;html=1;fillColor=#d5e8d4;strokeColor=#82b366;" vertex="1" parent="1">
          <mxGeometry x="40" y="760" width="80" height="30" as="geometry" />
        </mxCell>
        <mxCell id="BAi89jd5EGfL0doamKMS-53" value="-im&lt;br&gt;-ama" style="rounded=0;whiteSpace=wrap;html=1;fillColor=#d5e8d4;strokeColor=#82b366;" vertex="1" parent="1">
          <mxGeometry x="120" y="760" width="40" height="30" as="geometry" />
        </mxCell>
      </root>
    </mxGraphModel>
  </diagram>
</mxfile>
